Patient4_TMGait_0pt6_02_right_15_EMG.mot
version=1
nRows=29
nColumns=33
inDegrees=no
endheader
time	1LAddLong	2LGlutMax	3LGlutMed	4LIliopsoas	5LSemiMemb	6LBicFemLong	7LRecFem	8LVastMed	9LVastLat	10LGasMed	11LTibAnt	12lTibPost	13LPeroneusLong	14LSol	15LExtDigLong	16LFlexDigLong	17RAddLong	18RGlutMax	19RGlutMed	20RIliopsoas	21RSemiMemb	22RBicFemLong	23RRecFem	24RVastMed	25RVastLat	26RGasMed	27RTibAnt	28RTibPost	29RPeroneusLong	30RSol	31RExtDigLong	32RFlexDigLong
19.128	-0.002899	-0.075226	-0.14053	-0.020905	0.028839	-0.022736	0.15015	0.012665	-0.021362	0.39673	-0.027008	0.057983	0.040436	0.059967	0.10437	-0.11734	0.03891	0.032196	-0.47028	-0.018921	-0.00412	0.007935	-0.00824	-0.11612	-0.007324	0.000153	-0.028381	-0.002594	0.77774	-0.003967	-0.003357	-0.009918
19.129	-0.008545	-0.092926	-0.16159	-0.003052	0.009766	-0.06012	0.18753	0.010376	-0.033722	0.10452	-0.014801	-0.13748	0.057678	-0.12085	0.041962	-0.13687	0.014801	-0.033875	-0.52048	-0.059967	-0.084381	0.007782	-0.019531	-0.035858	-0.005341	-0.006866	-0.078888	0.000916	0.46448	0.0354	-0.005646	-0.00824
19.13	-0.005646	-0.10834	-0.097198	0.002747	0.002441	-0.064087	0.15015	0.004578	-0.049744	-0.19669	-0.002136	-0.046234	0.048828	0.006409	-0.035553	-0.025482	0.010529	-0.13825	-0.5127	-0.097198	-0.092163	-0.028992	-0.009613	-0.087128	-0.008087	-0.001678	-0.081787	-0.002289	-0.38284	0.027466	-0.005341	-0.014191
19.131	-0.000305	-0.067749	-0.068817	-0.005798	-0.015717	-0.045013	0.091553	0.005035	-0.049591	-0.48447	-0.007782	0.06012	-0.034485	-0.15961	0.002899	0.04364	-0.006409	-0.095978	-0.18936	-0.093689	0.028381	-0.088806	-0.01297	-0.10254	0.005646	-0.001831	-0.005188	-0.007172	-0.35629	-0.026855	-0.004425	-0.00946
19.132	-0.00885	-0.037079	-0.05661	-0.001831	-0.00946	-0.016632	0.10208	0.007477	0.065918	-0.25574	-0.000305	0.006561	-0.011139	-0.37705	0.00824	0.000763	-0.022278	-0.070343	0.010071	-0.024261	0.042877	-0.095825	0.036163	-0.11215	-0.015106	0.000763	-0.004272	-0.001373	-0.10284	-0.027161	-0.00351	-0.006561
19.133	-0.001831	-0.023041	-0.099945	0.024567	0.015869	0.00946	0.11948	0.005188	0.094147	0.3923	-0.009766	0.001831	-0.017548	-0.13275	0.000305	-0.012054	-0.016022	-0.038757	-0.041046	0.09552	-0.088654	-0.060425	0.027313	-0.15717	-0.012512	0.001831	-0.033875	-0.001373	-0.38101	-0.031891	-0.003967	-0.001526
19.134	0.003052	-0.037689	-0.033569	0.004578	0.006256	0.079041	0.12268	-0.000458	0.037994	0.8226	-0.005035	-0.015564	-0.017395	-0.10071	-0.021515	-0.00061	-0.021515	-0.058746	-0.17364	0.039978	-0.14221	0.002594	0.029907	-0.121	-0.029297	0.008545	0.006409	-0.001984	-0.27802	-0.092621	-0.002899	0
19.135	0.010071	-0.023193	-0.072174	0.004883	0.024109	0.068665	0.13519	-0.002289	0.013275	0.43701	-0.005951	-0.005341	-0.032806	0.000763	-0.033569	0.009308	-0.015106	-0.070038	-0.2359	-0.044556	-0.10193	0.027313	0.017242	-0.13321	-0.008545	-0.000458	-0.02594	-0.004578	-0.00885	-0.019989	-0.002594	0.000305
19.136	0.011292	-0.05661	-0.09491	-0.005493	0.05127	0.096741	0.14954	0.007324	-0.011902	-0.074463	0.005798	-0.005493	0.040283	0.22415	-0.035553	0.013123	-0.014648	-0.032349	-0.25406	-0.036316	-0.055542	-0.032043	-0.009918	-0.103	-0.005188	-0.00946	0.025635	-0.001984	0.058899	-0.031586	-0.001831	-0.003967
19.137	0.002747	-0.003052	-0.091553	0.018311	0.1088	-0.013123	0.15701	0.004272	-0.030823	-0.27847	-0.000763	-0.004425	0.19882	0.43655	-0.091248	0.006561	-0.024567	-0.059967	-0.32425	-0.039215	-0.089722	-0.000763	0.008698	-0.088806	0.00946	0.000763	0.11322	-0.005341	-0.021667	-0.018158	-0.001526	0.001984
19.138	0.007935	-0.029144	-0.095825	0.023193	0.093384	0.067291	0.20477	0.008087	-0.043488	-0.42801	0.006714	0.012817	0.11078	0.45029	-0.06958	0.000305	-0.023499	-0.083923	-0.24429	0.039063	-0.059967	0.038757	-0.018311	-0.11231	0.00946	-0.002136	0.11032	-0.005035	-0.041504	-0.019226	-0.000916	0.001984
19.139	0.011139	-0.021057	-0.088196	0.010223	0.057526	0.14862	0.20172	0.006104	-0.053253	-0.383	0.024872	0.00885	-0.20004	0.39948	0.081329	0.008698	0.006104	-0.039825	-0.24872	0.10452	-0.060425	0.23239	-0.028381	-0.095825	0.000763	-0.006104	0.049744	0.003357	0.006256	-0.013428	0.002747	0
19.14	-0.012665	-0.024261	-0.080566	0.016632	0.049744	0.074158	0.21179	0.008392	-0.048523	-0.52506	0.021515	-0.008545	-0.59464	0.29297	0.19684	0.012207	0.032806	-0.063019	-0.32364	0.11795	-0.06897	0.1741	-0.041351	-0.094452	0.001068	-0.001373	0.014801	-0.006256	-0.015717	-0.079041	-0.001526	0.001221
19.141	-0.013733	-0.003052	-0.068817	-0.003052	0.025177	-0.018158	0.21622	0.01358	-0.055847	-0.61066	0.014496	-0.012054	-0.29358	0.13367	0.095825	0.00061	0.028839	-0.027313	-0.28763	0.091705	-0.057983	0.068512	-0.025482	-0.083008	0.011597	-0.001831	0.070648	-0.00473	-0.091095	-0.062714	-0.001068	-0.006866
19.142	-0.001068	0.010376	-0.076599	0.006256	0.026398	-0.24353	0.15671	0.001373	-0.001373	-0.50705	0.004883	-0.018463	-0.1712	-0.059052	-0.004272	-0.010223	0.007629	-0.008545	-0.233	0.006256	-0.008392	-0.045471	-0.024261	-0.10574	0.034943	-0.008545	0.029755	-0.001831	-0.10193	-0.071411	-0.001068	-0.005646
19.143	0.009003	0.001221	-0.090942	-0.005951	0.031738	-0.11871	0.18021	0.004883	-0.009918	0.10529	-0.010986	-0.015411	-0.002899	-0.29572	-0.035248	-0.063629	-0.012207	-0.05188	-0.020599	-0.0354	0.045929	-0.16647	-0.041504	-0.088806	0.018463	-0.011597	-0.0177	-0.008698	-0.081329	-0.059357	0.00473	-0.001831
19.144	0.098877	-0.010834	-0.10239	0.019684	0.030823	-0.036926	0.20096	0.011139	-0.009613	0.57388	-0.005798	0.002289	-0.061035	-0.26581	-0.033264	0.054626	-0.02655	-0.041809	-0.14252	-0.015106	0.026245	-0.19501	-0.029449	-0.077515	0.04425	-0.016327	0.074615	-0.002899	0.002136	-0.10132	-0.001831	-0.014648
19.145	0.06897	0.022125	-0.095367	0.010986	0.052795	0.001526	0.19043	0.008392	0.040588	0.26093	-0.011444	0.021362	-0.12177	-0.2919	0.016174	0.024719	-0.046692	-0.084381	-0.35126	0.025024	0.17075	-0.21912	-0.042725	-0.05188	0.031586	-0.012817	0.1976	-0.006561	0.072479	-0.08728	-0.001526	-0.009308
19.146	0.046692	-0.008087	-0.12375	0.036163	0.05127	-0.023041	0.22095	0.005188	0.047607	0.1593	-0.007782	0.022278	0.14648	-0.32059	0.026245	-0.14725	-0.039215	-0.067444	-0.37293	0.074005	0.00824	-0.18295	-0.003357	0.018005	0.027466	-0.002441	-0.028687	-0.008392	0.098419	-0.12146	-0.000916	-0.007019
19.147	0.003815	0.021362	-0.18982	0.006104	0.042877	-0.007935	0.22201	0	-0.044403	0.15228	-0.013275	0.005035	0.76141	-0.33905	0.037384	0.23422	-0.031433	-0.052643	-0.23514	0.027008	-0.084534	-0.1294	-0.03067	-0.020905	0.028687	0.006714	-0.10681	-0.007935	0.068665	-0.094757	0.002289	-0.006104
19.148	0.00946	0.035858	-0.20233	0.003967	0.041351	-0.021057	0.19653	-0.005493	0.06073	0.38116	-0.014801	0.005188	0.13489	-0.31433	0.031586	0.17838	-0.008392	0.003204	-0.25314	-0.002441	-0.15945	0.015411	-0.040436	-0.028381	0.03891	0.003357	-0.10849	-0.006409	0.054169	0.026093	-0.001984	-0.006561
19.149	0.00061	0.049286	-0.1265	-0.019226	0.04303	0.010986	0.22095	-0.000305	0.055695	0.63019	-0.005951	0.060883	0.21194	-0.16083	0.022125	-0.1532	-0.003967	-0.011597	-0.36789	0.021667	-0.21942	0.039825	-0.013275	-0.077515	0.021667	-0.000916	-0.058594	-0.010834	0.052338	0.011597	-0.001678	-0.013885
19.15	-0.001068	0.037537	-0.12329	0.018768	0.04303	-0.023956	0.1944	0.005035	-0.000305	0.62454	-0.006256	0.074921	0.23148	0.26703	-0.008087	-0.16663	0.004578	-0.077515	-0.62836	0.025177	-0.090332	0.016785	0.012665	-0.12009	-0.005798	-0.002136	0.004272	-0.011902	0.083008	-0.065613	-0.001831	-0.010529
19.151	0.00473	0.025787	-0.15762	0.015717	0.044861	-0.029755	0.11536	0.00824	-0.036316	0.26047	0.025177	0.026398	0.30716	0.23895	-0.068817	-0.083923	0.010986	-0.039215	-0.66574	0.02243	0.027618	0.15457	-0.01297	-0.12314	0.006561	-0.005035	0.1683	-0.007935	0.11795	-0.056458	0.002594	-0.007629
19.152	-0.00061	0.031891	-0.14618	0.002441	0.048065	-0.042419	0.098724	0.002136	-0.026398	-0.65887	0.027771	-0.078583	0.33875	0.12787	-0.072937	-0.039978	0.019989	-0.029602	-0.37125	-0.02533	0.10284	0.18982	-0.045319	-0.13473	0.011292	-0.00061	0.15198	-0.012512	0.097809	0.007172	0.001221	-0.008392
19.153	0.002136	0.072174	-0.13153	0.010071	0.045471	-0.044556	0.1831	0.004272	-0.020752	-0.61325	0.035858	-0.019531	-0.060577	0.37109	-0.078888	-0.007782	0.031891	-0.001373	0.31097	-0.049744	-0.001221	0.16754	-0.011597	-0.1236	0.000153	0.002747	0.20477	-0.006714	0.070038	-0.008545	-0.004272	-0.002899
19.154	-0.002899	0.077515	-0.15045	-0.003967	0.058136	-0.028839	0.19928	0.005798	-0.029144	-0.42297	0.031281	0.16785	-0.29999	0.43671	-0.16159	0.033722	0.030823	0.012512	0.41275	-0.041046	0.003815	0.1471	0.014648	-0.10422	0.00824	0.002441	0.22293	-0.007172	0.039673	-0.025024	-0.003662	0.000305
19.155	-0.006256	0.10117	-0.079498	-0.018616	0.045624	-0.03067	0.16449	0.003967	-0.023956	-0.31891	0.025177	-0.019379	-0.45013	0.40619	-0.099945	0.036469	0.003204	-0.03952	0.069275	-0.048065	0.10727	0.15182	-0.043793	-0.08316	0.031738	0.011292	0.18417	-0.005341	-0.019989	-0.06134	-0.005341	0.002594
19.156	-0.004272	0.10071	-0.087585	-0.015259	0.039673	-0.038147	0.19318	0.002899	0.024109	-0.31845	0.009003	-0.12344	0.063629	0.19623	-0.085754	0.026703	-0.027313	-0.070343	0.27527	-0.085297	0.059357	0.13489	0.001831	-0.094452	0.030518	-0.005035	0.13886	-0.009918	-0.1799	-0.094757	-0.002136	-0.00824
